<?xml version="1.0" encoding="utf-8"?>
<!-- Generated by IcoMoon.io -->
<!DOCTYPE svg PUBLIC "-//W3C//DTD SVG 1.1//EN" "http://www.w3.org/Graphics/SVG/1.1/DTD/svg11.dtd">
<svg version="1.1" xmlns="http://www.w3.org/2000/svg" xmlns:xlink="http://www.w3.org/1999/xlink" width="22" height="22" viewBox="0 0 22 22">
	<path d="M20.625 22h-15.125q-0.559 0-0.967-0.397t-0.408-0.978v-0.236q-3.545-3.438-3.566-3.48-0.559-0.516-0.559-1.665t0.559-1.687l3.566-3.438v-8.744q0-0.559 0.408-0.967t0.967-0.408h8.25v7.563q0 0.301 0.204 0.494t0.483 0.193h7.541q0.021 0.021 0.021 0.043v12.332q0 0.58-0.397 0.978t-0.978 0.397zM13.75 13.729q0-0.559-0.397-0.967t-0.978-0.408h-4.125v-1.246q0.086-0.645-0.365-1.096-0.387-0.408-0.935-0.408t-0.935 0.408l-4.254 4.232q-0.387 0.387-0.387 0.935t0.387 0.935q0.258 0.258 2.073 2.009t2.181 2.116q0.387 0.387 0.935 0.387t0.935-0.387q0.451-0.451 0.365-1.117v-1.268h4.125q0.58 0 0.978-0.397t0.397-0.978v-2.75zM15.125 0q0.559 0 0.945 0.387l5.521 5.521q0.408 0.408 0.387 0.967h-6.854v-6.875z" fill="#aaaaaa" />
</svg>
