<?xml version="1.0" encoding="utf-8"?>
<!-- Generated by IcoMoon.io -->
<!DOCTYPE svg PUBLIC "-//W3C//DTD SVG 1.1//EN" "http://www.w3.org/Graphics/SVG/1.1/DTD/svg11.dtd">
<svg version="1.1" xmlns="http://www.w3.org/2000/svg" xmlns:xlink="http://www.w3.org/1999/xlink" width="22" height="22" viewBox="0 0 22 22">
	<path d="M4.813 4.125h14.438q0.559 0 0.967 0.397t0.408 0.978v13.75q0 1.053-1.429 1.901t-2.696 0.849h-12.375q-1.139 0-1.944-0.806t-0.806-1.944v-16.5q0-1.139 0.806-1.944t1.944-0.806h15.125q0.559 0 0.967 0.408t0.408 0.978-0.408 0.967-0.967 0.397h-14.438q-0.279 0-0.483 0.204t-0.204 0.483 0.204 0.483 0.483 0.204zM9.625 19.938q0 0.279 0.204 0.483t0.483 0.204h1.375q0.279 0 0.483-0.204t0.204-0.483v-1.375q0-0.279-0.204-0.483t-0.483-0.204h-1.375q-0.279 0-0.483 0.204t-0.204 0.483v1.375zM5.5 11q0 0.279 0.204 0.483t0.483 0.204h1.375q0.279 0 0.483-0.204t0.204-0.483q0-0.58 0.806-0.978t1.944-0.397 1.944 0.408 0.806 0.967q0 0.58-0.806 0.978t-1.944 0.397q-0.559 0-0.967 0.408t-0.408 0.967v2.063q0 0.279 0.204 0.483t0.483 0.204h1.375q0.279 0 0.483-0.204t0.204-0.483v-0.816q1.805-0.344 2.965-1.461t1.16-2.535q0-1.719-1.611-2.922t-3.889-1.203q-1.096 0-2.138 0.29t-1.762 0.72-1.16 0.902-0.44 0.838v1.375z" fill="#aaaaaa" />
</svg>
