<?xml version="1.0" encoding="utf-8"?>
<!-- Generated by IcoMoon.io -->
<!DOCTYPE svg PUBLIC "-//W3C//DTD SVG 1.1//EN" "http://www.w3.org/Graphics/SVG/1.1/DTD/svg11.dtd">
<svg version="1.1" xmlns="http://www.w3.org/2000/svg" xmlns:xlink="http://www.w3.org/1999/xlink" width="22" height="22" viewBox="0 0 22 22">
	<path d="M11 22q-2.986 0-5.521-1.472t-4.007-4.007-1.472-5.521 1.472-5.521 4.007-4.007 5.521-1.472 5.521 1.472 4.007 4.007 1.472 5.521-1.472 5.521-4.007 4.007-5.521 1.472zM17.682 7.326l-0.945-0.945q-0.215-0.193-0.483-0.193t-0.483 0.193l-6.488 6.488-3.072-3.051q-0.193-0.193-0.473-0.193t-0.473 0.193l-0.945 0.945q-0.193 0.193-0.193 0.473t0.193 0.494l3.266 3.244q0.021 0.236 0.172 0.387l0.945 0.945q0.236 0.236 0.58 0.172 0.344 0.064 0.58-0.172l0.945-0.945q0.129-0.15 0.172-0.387l6.703-6.703q0.193-0.193 0.193-0.473t-0.193-0.473z" fill="#aaaaaa" />
</svg>
