<?xml version="1.0" encoding="utf-8"?>
<!-- Generated by IcoMoon.io -->
<!DOCTYPE svg PUBLIC "-//W3C//DTD SVG 1.1//EN" "http://www.w3.org/Graphics/SVG/1.1/DTD/svg11.dtd">
<svg version="1.1" xmlns="http://www.w3.org/2000/svg" xmlns:xlink="http://www.w3.org/1999/xlink" width="22" height="22" viewBox="0 0 22 22">
	<path d="M19.25 12.375h-2.75v2.75q0 0.58 0.397 0.978t0.967 0.397 0.978 0.408 0.408 0.978-0.408 0.967-0.967 0.397h-2.75q-0.666 0-1.311-0.688t-1.042-1.654-0.397-1.783v-9.625q0-1.139 0.806-1.944t1.944-0.806h4.125q1.139 0 1.944 0.806t0.806 1.944v4.125q0 1.139-0.806 1.944t-1.944 0.806zM6.875 12.375h-2.75v2.75q0 0.58 0.397 0.978t0.978 0.397 0.978 0.408 0.397 0.978-0.397 0.967-0.978 0.397h-2.75q-0.645 0-1.3-0.688t-1.053-1.654-0.397-1.783v-9.625q0-1.139 0.806-1.944t1.944-0.806h4.125q1.139 0 1.944 0.806t0.806 1.944v4.125q0 1.139-0.806 1.944t-1.944 0.806z" fill="#aaaaaa" />
</svg>
