<?xml version="1.0" encoding="utf-8"?>
<!-- Generated by IcoMoon.io -->
<!DOCTYPE svg PUBLIC "-//W3C//DTD SVG 1.1//EN" "http://www.w3.org/Graphics/SVG/1.1/DTD/svg11.dtd">
<svg version="1.1" xmlns="http://www.w3.org/2000/svg" xmlns:xlink="http://www.w3.org/1999/xlink" width="22" height="22" viewBox="0 0 22 22">
	<path d="M19.25 15.125v1.375q0 2.277-1.611 3.889t-3.889 1.611h-9.625q-0.58 0-0.978-0.408t-0.397-0.967v-19.25q0-0.559 0.397-0.967t0.978-0.408h9.625q2.277 0 3.889 1.611t1.611 3.889v0.688q0 1.203-0.505 2.277t-1.364 1.848q0.816 0.73 1.343 2.127t0.526 2.686zM13.063 4.125h-5.5q-0.279 0-0.483 0.204t-0.204 0.483v2.75q0 0.279 0.204 0.483t0.483 0.204h5.5q0.838 0 1.45-0.602t0.612-1.461-0.612-1.461-1.45-0.602zM12.375 12.375h-4.813q-0.279 0-0.483 0.204t-0.204 0.483v4.125q0 0.279 0.204 0.483t0.483 0.204h4.813q1.139 0 1.944-0.806t0.806-1.944-0.806-1.944-1.944-0.806z" fill="#aaaaaa" />
</svg>
