<?xml version="1.0" encoding="utf-8"?>
<!-- Generated by IcoMoon.io -->
<!DOCTYPE svg PUBLIC "-//W3C//DTD SVG 1.1//EN" "http://www.w3.org/Graphics/SVG/1.1/DTD/svg11.dtd">
<svg version="1.1" xmlns="http://www.w3.org/2000/svg" xmlns:xlink="http://www.w3.org/1999/xlink" width="22" height="22" viewBox="0 0 22 22">
	<path d="M11 22q-2.234 0-4.275-0.87t-3.513-2.342-2.342-3.513-0.87-4.275 0.87-4.275 2.342-3.513 3.513-2.342 4.275-0.87 4.275 0.87 3.513 2.342 2.342 3.513 0.87 4.275-0.87 4.275-2.342 3.513-3.513 2.342-4.275 0.87zM16.070 7.928q0.43-0.408 0.43-1.010t-0.419-1.021-1.021-0.419-1.010 0.43l-3.072 3.051-3.051-3.051q-0.408-0.43-1.010-0.43t-1.021 0.419-0.419 1.021 0.43 1.010l3.051 3.072-3.051 3.051q-0.43 0.408-0.43 1.010t0.419 1.021 1.021 0.419 1.010-0.43l3.051-3.051 3.072 3.051q0.408 0.43 1.010 0.43t1.021-0.419 0.419-1.021-0.43-1.010l-3.051-3.051z" fill="#aaaaaa" />
</svg>
