<?xml version="1.0" encoding="utf-8"?>
<!-- Generated by IcoMoon.io -->
<!DOCTYPE svg PUBLIC "-//W3C//DTD SVG 1.1//EN" "http://www.w3.org/Graphics/SVG/1.1/DTD/svg11.dtd">
<svg version="1.1" xmlns="http://www.w3.org/2000/svg" xmlns:xlink="http://www.w3.org/1999/xlink" width="22" height="22" viewBox="0 0 22 22">
	<path d="M19.766 17.875q-0.795 0-1.461-0.419t-1.010-1.128l-0.816-0.365 0.365 0.816q0.688 0.344 1.117 1.010t0.43 1.461q0 1.139-0.806 1.944t-1.944 0.806-1.944-0.806-0.806-1.944q0-0.73 0.365-1.354t0.967-0.988l-1.074-2.428-1.633-0.73q-6.188-3.459-8.809-5.403t-2.105-2.825l10.914 5.479-5.479-10.936q0.881-0.516 2.804 2.095t5.425 8.841l0.73 1.633 2.428 1.074q0.365-0.602 0.988-0.967t1.354-0.365q1.139 0 1.944 0.806t0.806 1.944-0.806 1.944-1.944 0.806zM14.266 19.261q0 0.569 0.408 0.967t0.978 0.397 0.967-0.397 0.397-0.967-0.397-0.978-0.967-0.408-0.978 0.408-0.408 0.978zM19.776 13.75q-0.569 0-0.978 0.408t-0.408 0.978 0.408 0.967 0.978 0.397 0.967-0.397 0.397-0.967-0.397-0.978-0.967-0.408z" fill="#aaaaaa" />
</svg>
