<?xml version="1.0" encoding="utf-8"?>
<!-- Generated by IcoMoon.io -->
<!DOCTYPE svg PUBLIC "-//W3C//DTD SVG 1.1//EN" "http://www.w3.org/Graphics/SVG/1.1/DTD/svg11.dtd">
<svg version="1.1" xmlns="http://www.w3.org/2000/svg" xmlns:xlink="http://www.w3.org/1999/xlink" width="22" height="22" viewBox="0 0 22 22">
	<path d="M0 22v-22.021h22v22.021h-22zM20.625 1.354h-19.25v16.521h19.25v-16.521zM5.5 2.729q1.139 0 1.944 0.806t0.806 1.944-0.806 1.944-1.944 0.806-1.944-0.795-0.806-1.934v-0.021q0-1.139 0.806-1.944t1.944-0.806zM7.885 11.365l5.113 5.135h-10.248v-1.998l3.137-3.137q0.387-0.387 0.999-0.387t0.999 0.387zM14.824 7.24q0.387-0.408 0.999-0.408t0.999 0.408l2.428 2.428v6.832h-4.383q0-0.021-0.032-0.075t-0.054-0.097l-4.533-4.512z" fill="#aaaaaa" />
</svg>
