<?xml version="1.0" encoding="utf-8"?>
<!-- Generated by IcoMoon.io -->
<!DOCTYPE svg PUBLIC "-//W3C//DTD SVG 1.1//EN" "http://www.w3.org/Graphics/SVG/1.1/DTD/svg11.dtd">
<svg version="1.1" xmlns="http://www.w3.org/2000/svg" xmlns:xlink="http://www.w3.org/1999/xlink" width="22" height="22" viewBox="0 0 22 22">
	<path d="M20.356 20.356q-1.644 1.644-3.975 1.644t-3.964-1.654l-1.096-1.096 2.428-1.375 0.516 0.516q0.859 0.859 2.063 0.859t2.063-0.859 0.859-2.063-0.859-2.063l-5.156-5.178q-0.859-0.838-2.073-0.838t-2.073 0.838q-0.021 0.043-0.064 0.086-0.666 0.666-0.773 1.139l-2.063-2.063q0.086-0.15 0.215-0.322t0.204-0.247l0.279-0.279t0.269-0.247q1.633-1.654 3.964-1.654t3.964 1.654l5.264 5.264q1.654 1.633 1.654 3.964t-1.644 3.975zM7.734 3.609q-0.859-0.859-2.063-0.859t-2.063 0.859-0.859 2.063 0.859 2.063l5.156 5.178q0.859 0.859 2.073 0.859t2.073-0.859q0.021-0.043 0.064-0.086 0.666-0.666 0.773-1.139l2.063 2.063q-0.086 0.15-0.215 0.322t-0.204 0.247l-0.279 0.279t-0.269 0.247q-1.633 1.654-3.964 1.654t-3.964-1.654l-5.264-5.264q-1.654-1.633-1.654-3.964t1.644-3.975 3.975-1.644 3.964 1.654l1.096 1.096-2.428 1.375z" fill="#aaaaaa" />
</svg>
