<?xml version="1.0" encoding="utf-8"?>
<!-- Generated by IcoMoon.io -->
<!DOCTYPE svg PUBLIC "-//W3C//DTD SVG 1.1//EN" "http://www.w3.org/Graphics/SVG/1.1/DTD/svg11.dtd">
<svg version="1.1" xmlns="http://www.w3.org/2000/svg" xmlns:xlink="http://www.w3.org/1999/xlink" width="22" height="22" viewBox="0 0 22 22">
	<path d="M20.625 12.375h-11q-0.559 0-0.967-0.397t-0.408-0.978 0.408-0.978 0.967-0.397h11q0.58 0 0.978 0.397t0.397 0.978-0.397 0.978-0.978 0.397zM20.625 4.125h-11q-0.559 0-0.967-0.397t-0.408-0.967 0.408-0.978 0.967-0.408h11q0.58 0 0.978 0.408t0.397 0.978-0.397 0.967-0.978 0.397zM2.063 22h-1.375q-0.279 0-0.483-0.204t-0.204-0.483q0-0.301 0.215-0.494-0.064-0.15-0.086-0.193h1.934q0.279 0 0.483-0.204t0.204-0.483-0.204-0.483-0.483-0.204l-0.021-0.021q-0.301 0.043-0.505-0.161t-0.161-0.505v0q0.021-0.215 0.172-0.344l0.322-0.344h-1.182q-0.279 0-0.483-0.204t-0.204-0.483 0.204-0.483 0.483-0.204h2.75q0.279 0 0.483 0.204t0.204 0.483q0 0.236-0.14 0.419t-0.376 0.247l-0.408 0.408q0.924 0.945 0.924 1.676 0 0.859-0.602 1.461t-1.461 0.602zM4.125 13.063q0 0.279-0.204 0.483t-0.483 0.204h-2.75q-0.279 0-0.483-0.204t-0.204-0.483q0-0.15 0.204-0.354t0.591-0.516 0.58-0.505q0.236-0.236 0.612-0.526t0.58-0.473 0.204-0.312q0-0.301-0.215-0.526t-0.494-0.226h-1.375q-0.688 0-0.688-0.688 0-0.279 0.204-0.483t0.483-0.204h1.375q0.859 0 1.461 0.602t0.602 1.461q0 0.494-0.322 0.978t-0.967 1.085h0.602q0.279 0 0.483 0.204t0.204 0.483zM3.438 5.5h-2.75q-0.279 0-0.483-0.204t-0.204-0.483 0.204-0.483 0.483-0.204h0.688v-2.75h-0.688q-0.279 0-0.483-0.204t-0.204-0.483 0.204-0.483 0.483-0.204h1.375q0.279 0 0.483 0.204t0.204 0.483v3.438h0.688q0.279 0 0.483 0.204t0.204 0.483-0.204 0.483-0.483 0.204zM9.625 17.875h11q0.58 0 0.978 0.408t0.397 0.967-0.397 0.967-0.978 0.408h-11q-0.559 0-0.967-0.397t-0.408-0.978 0.408-0.978 0.967-0.397z" fill="#aaaaaa" />
</svg>
