<?xml version="1.0" encoding="utf-8"?>
<!-- Generated by IcoMoon.io -->
<!DOCTYPE svg PUBLIC "-//W3C//DTD SVG 1.1//EN" "http://www.w3.org/Graphics/SVG/1.1/DTD/svg11.dtd">
<svg version="1.1" xmlns="http://www.w3.org/2000/svg" xmlns:xlink="http://www.w3.org/1999/xlink" width="22" height="22" viewBox="0 0 22 22">
	<path d="M19.25 22h-16.5q-0.559 0-0.967-0.408t-0.408-0.967v-17.875q0-0.58 0.397-0.988t0.978-0.408h2.75v2.75q0 0.58 0.408 0.978t0.967 0.397h8.25q0.58 0 0.978-0.397t0.397-0.978v-2.75h2.75q0.58 0 0.978 0.408t0.397 0.988v17.875q0 0.559-0.397 0.967t-0.978 0.408zM13.75 4.125h-5.5q-0.559 0-0.967-0.408t-0.408-0.967q0-0.58 0.408-0.978t0.967-0.397q0-0.58 0.408-0.978t0.967-0.397h2.75q0.58 0 0.978 0.397t0.397 0.978q0.58 0 0.978 0.397t0.397 0.978q0 0.559-0.397 0.967t-0.978 0.408z" fill="#aaaaaa" />
</svg>
