<?xml version="1.0" encoding="utf-8"?>
<!-- Generated by IcoMoon.io -->
<!DOCTYPE svg PUBLIC "-//W3C//DTD SVG 1.1//EN" "http://www.w3.org/Graphics/SVG/1.1/DTD/svg11.dtd">
<svg version="1.1" xmlns="http://www.w3.org/2000/svg" xmlns:xlink="http://www.w3.org/1999/xlink" width="22" height="22" viewBox="0 0 22 22">
	<path d="M21.979 7.326q-0.021 0.322-0.204 0.623t-0.462 0.301h-7.090q-0.516 0.021-0.494-0.73l2.707-2.707q-2.342-2.063-5.436-2.063-2.234 0-4.136 1.106t-3.008 3.008-1.106 4.146 1.106 4.136 3.008 2.997 4.136 1.106q1.891 0 3.556-0.806t2.825-2.224l2.17 1.697q-1.547 1.912-3.781 2.997t-4.77 1.085q-2.234 0-4.275-0.87t-3.513-2.342-2.342-3.513-0.87-4.275 0.87-4.265 2.342-3.502 3.513-2.342 4.275-0.87q2.084 0 3.985 0.752t3.405 2.105l2.879-2.879q0.752-0.021 0.73 0.494z" fill="#aaaaaa" />
</svg>
