<?xml version="1.0" encoding="utf-8"?>
<!-- Generated by IcoMoon.io -->
<!DOCTYPE svg PUBLIC "-//W3C//DTD SVG 1.1//EN" "http://www.w3.org/Graphics/SVG/1.1/DTD/svg11.dtd">
<svg version="1.1" xmlns="http://www.w3.org/2000/svg" xmlns:xlink="http://www.w3.org/1999/xlink" width="22" height="22" viewBox="0 0 22 22">
	<path d="M20.625 12.375h-2.127q0.73 1.289 0.73 2.75v1.375q0 2.277-1.601 3.889t-3.878 1.611h-5.5q-2.277 0-3.889-1.611t-1.611-3.889q0-0.58 0.397-0.978t0.967-0.397 0.978 0.397 0.408 0.978q0 1.139 0.806 1.944t1.944 0.806h5.5q1.139 0 1.944-0.806t0.806-1.944v-1.375q0-1.139-0.806-1.944t-1.944-0.806h-12.375q-0.58 0-0.978-0.397t-0.397-0.978 0.397-0.978 0.978-0.397h2.127q-0.73-1.289-0.73-2.75v-1.375q0-2.277 1.601-3.889t3.878-1.611h5.5q2.277 0 3.889 1.611t1.611 3.889q0 0.58-0.397 0.978t-0.967 0.397-0.978-0.408-0.408-0.967q0-1.139-0.806-1.944t-1.944-0.806h-5.5q-1.139 0-1.944 0.806t-0.806 1.944v1.375q0 1.139 0.806 1.944t1.944 0.806h12.375q0.559 0 0.967 0.408t0.408 0.967-0.408 0.967-0.967 0.408z" fill="#aaaaaa" />
</svg>
