<?xml version="1.0" encoding="utf-8"?>
<!-- Generated by IcoMoon.io -->
<!DOCTYPE svg PUBLIC "-//W3C//DTD SVG 1.1//EN" "http://www.w3.org/Graphics/SVG/1.1/DTD/svg11.dtd">
<svg version="1.1" xmlns="http://www.w3.org/2000/svg" xmlns:xlink="http://www.w3.org/1999/xlink" width="22" height="22" viewBox="0 0 22 22">
	<path d="M21.313 4.146h-3.438v1.375h3.438q0.279 0 0.483 0.204t0.204 0.483-0.204 0.483-0.483 0.204h-4.125q-0.258 0-0.44-0.161t-0.226-0.397v-3.008q0.043-0.236 0.226-0.397t0.44-0.161h3.438v-1.375h-3.438q-0.279 0-0.483-0.204t-0.204-0.483 0.204-0.483 0.483-0.204h4.125q0.258 0 0.44 0.161t0.226 0.397v3.008q-0.043 0.236-0.226 0.397t-0.44 0.161zM13.374 21.646q-0.354 0.354-0.849 0.354t-0.859-0.365l-4.791-5.951-4.813 5.951q-0.344 0.365-0.849 0.365t-0.859-0.354-0.354-0.859 0.365-0.849l4.963-6.188-4.963-6.166q-0.365-0.365-0.365-0.859t0.354-0.849 0.859-0.354 0.849 0.344l4.813 5.973 4.791-5.973q0.365-0.344 0.859-0.344t0.849 0.354 0.354 0.849-0.344 0.859l-4.963 6.166 4.963 6.188q0.344 0.344 0.344 0.849t-0.354 0.859z" fill="#aaaaaa" />
</svg>
