<?xml version="1.0" encoding="utf-8"?>
<!-- Generated by IcoMoon.io -->
<!DOCTYPE svg PUBLIC "-//W3C//DTD SVG 1.1//EN" "http://www.w3.org/Graphics/SVG/1.1/DTD/svg11.dtd">
<svg version="1.1" xmlns="http://www.w3.org/2000/svg" xmlns:xlink="http://www.w3.org/1999/xlink" width="22" height="22" viewBox="0 0 22 22">
	<path d="M20.625 12.375h-11q-0.58 0-0.978-0.408t-0.397-0.978 0.397-0.967 0.978-0.397h11q0.58 0 0.978 0.397t0.397 0.967-0.397 0.978-0.978 0.408zM20.625 4.125h-11q-0.58 0-0.978-0.408t-0.397-0.978 0.397-0.967 0.978-0.397h11q0.58 0 0.978 0.397t0.397 0.967-0.397 0.978-0.978 0.408zM2.75 22q-1.139 0-1.944-0.806t-0.806-1.944 0.806-1.944 1.944-0.806 1.944 0.806 0.806 1.944-0.806 1.944-1.944 0.806zM2.75 13.75q-1.139 0-1.944-0.806t-0.806-1.944 0.806-1.944 1.944-0.806 1.944 0.806 0.806 1.944-0.806 1.944-1.944 0.806zM2.75 5.5q-1.139 0-1.944-0.806t-0.806-1.944 0.806-1.944 1.944-0.806 1.944 0.806 0.806 1.944-0.806 1.944-1.944 0.806zM9.625 17.875h11q0.58 0 0.978 0.397t0.397 0.978-0.397 0.978-0.978 0.397h-11q-0.58 0-0.978-0.397t-0.397-0.978 0.397-0.978 0.978-0.397z" fill="#aaaaaa" />
</svg>
