<?xml version="1.0" encoding="utf-8"?>
<!-- Generated by IcoMoon.io -->
<!DOCTYPE svg PUBLIC "-//W3C//DTD SVG 1.1//EN" "http://www.w3.org/Graphics/SVG/1.1/DTD/svg11.dtd">
<svg version="1.1" xmlns="http://www.w3.org/2000/svg" xmlns:xlink="http://www.w3.org/1999/xlink" width="22" height="22" viewBox="0 0 22 22">
	<path d="M11.021 22q-2.535 0-4.77-1.085t-3.781-2.997l2.17-1.697q1.16 1.418 2.825 2.224t3.556 0.806q2.234 0 4.136-1.106t3.008-3.008 1.106-4.136-1.106-4.136-3.008-3.008-4.136-1.106q-3.094 0-5.436 2.063l2.707 2.707q0.021 0.752-0.494 0.73h-7.090q-0.279 0-0.462-0.301t-0.204-0.623l-0.021-6.832q-0.021-0.516 0.73-0.494l2.879 2.879q1.504-1.354 3.405-2.116t3.985-0.763q2.234 0 4.275 0.881t3.513 2.353 2.342 3.502 0.87 4.265-0.87 4.275-2.342 3.513-3.513 2.342-4.275 0.87z" fill="#aaaaaa" />
</svg>
